<svg width="334" height="122" viewBox="0 0 334 122" fill="none" xmlns="http://www.w3.org/2000/svg">
<path d="M115.5 112.593C93.0999 112.993 69.4999 104.093 60.4999 99.593C52.0999 104.393 53.6665 115.26 55.4999 120.093H115.5V112.593Z" fill="#0D265D"/>
<path d="M45.5 101.093C26.7 91.893 16 77.9264 13 72.093C4.2 80.093 0.666667 108.093 0 121.093H41L45.5 101.093Z" fill="#0D265D"/>
<path d="M116 66.093C90.8002 70.493 78.5002 67.2597 75.5002 65.093C63.5002 76.693 62.5002 90.593 63.5002 96.093C76.7002 99.693 104 99.9263 116 99.593V66.093Z" fill="#0D265D"/>
<path d="M116 36.093C112.4 37.693 99.1668 35.4264 93.0002 34.093C84.6002 40.493 82.8335 52.4264 83.0002 57.593C88.6002 57.593 107.334 58.9264 116 59.593V36.093Z" fill="#0D265D"/>
<path d="M55.5 2.09302H1.5V43.593H4C13.6 24.393 42.3333 10.593 55.5 6.09302V2.09302Z" fill="#FF0000"/>
<path d="M116 30.0931V0.0930767C97.6001 -1.10692 92.6667 9.59308 92.5 15.0931C91.3 27.0931 107.667 30.0931 116 30.0931Z" fill="#0D265D"/>
<path d="M91 31.593C85.5 27.593 81.3333 15.093 80 9.59302C75.6 9.99302 65.1666 20.093 60.5 25.093C58.9928 40.5418 68.6072 48.9213 74.4643 51.6524C75.0079 51.9059 75.6368 51.5871 75.8836 51.0404C77.9891 46.378 86.694 36.3604 91 31.593Z" fill="#0D265D"/>
<path d="M46.0001 33.593C47.2001 46.393 61.5001 58.9264 68.5001 63.593C62.1001 67.993 54.5001 82.7597 51.5001 89.593C45.9001 87.193 34.1668 72.2597 29.0001 65.093C25.0001 45.093 38.6668 35.7597 46.0001 33.593Z" fill="#0D265D"/>
<path d="M158.49 61.5522C157.318 62.0093 155.766 62.4663 153.832 62.9233C151.898 63.3687 149.971 63.5913 148.049 63.5913C143.596 63.5913 140.109 62.3843 137.59 59.9702C135.07 57.5444 133.811 54.1987 133.811 49.9331C133.811 45.8667 135.082 42.5913 137.625 40.1069C140.168 37.6108 143.713 36.3628 148.26 36.3628C149.982 36.3628 151.623 36.521 153.182 36.8374C154.74 37.1421 156.475 37.7573 158.385 38.6831V44.8179H157.629C157.301 44.5718 156.82 44.2261 156.188 43.7808C155.555 43.3237 154.945 42.937 154.359 42.6206C153.68 42.2456 152.883 41.9233 151.969 41.6538C151.066 41.3843 150.105 41.2495 149.086 41.2495C147.891 41.2495 146.807 41.4253 145.834 41.7769C144.861 42.1284 143.988 42.6675 143.215 43.394C142.477 44.0972 141.891 44.9937 141.457 46.0835C141.035 47.1616 140.824 48.4097 140.824 49.8276C140.824 52.7222 141.592 54.937 143.127 56.4722C144.662 58.0073 146.93 58.7749 149.93 58.7749C150.188 58.7749 150.469 58.769 150.773 58.7573C151.09 58.7456 151.377 58.728 151.635 58.7046V53.5718H146.414V48.6323H158.49V61.5522ZM183.434 63.0464H164.555V36.8726H171.305V57.9839H183.434V63.0464ZM212.965 49.9683C212.965 54.1401 211.77 57.4565 209.379 59.9175C206.988 62.3667 203.684 63.5913 199.465 63.5913C195.258 63.5913 191.959 62.3667 189.568 59.9175C187.178 57.4565 185.982 54.1401 185.982 49.9683C185.982 45.7612 187.178 42.439 189.568 40.0015C191.959 37.5522 195.258 36.3276 199.465 36.3276C203.66 36.3276 206.959 37.5522 209.361 40.0015C211.764 42.439 212.965 45.7612 212.965 49.9683ZM204.018 56.5952C204.674 55.7983 205.16 54.8608 205.477 53.7827C205.793 52.6929 205.951 51.4155 205.951 49.9507C205.951 48.3804 205.77 47.0444 205.406 45.9429C205.043 44.8413 204.568 43.9507 203.982 43.271C203.385 42.5679 202.693 42.0581 201.908 41.7417C201.135 41.4253 200.326 41.2671 199.482 41.2671C198.627 41.2671 197.818 41.4194 197.057 41.7241C196.307 42.0288 195.615 42.5327 194.982 43.2358C194.396 43.8921 193.916 44.8003 193.541 45.9604C193.178 47.1089 192.996 48.4448 192.996 49.9683C192.996 51.5269 193.172 52.8569 193.523 53.9585C193.887 55.0483 194.361 55.939 194.947 56.6304C195.533 57.3218 196.219 57.8315 197.004 58.1597C197.789 58.4878 198.615 58.6519 199.482 58.6519C200.35 58.6519 201.176 58.4878 201.961 58.1597C202.746 57.8198 203.432 57.2983 204.018 56.5952ZM240.527 55.0308C240.527 56.2964 240.27 57.4272 239.754 58.4233C239.25 59.4194 238.553 60.2456 237.662 60.9019C236.631 61.6753 235.494 62.2261 234.252 62.5542C233.021 62.8823 231.457 63.0464 229.559 63.0464H218.133V36.8726H228.293C230.402 36.8726 231.943 36.9429 232.916 37.0835C233.9 37.2241 234.873 37.5347 235.834 38.0151C236.83 38.519 237.568 39.1987 238.049 40.0542C238.541 40.8979 238.787 41.8647 238.787 42.9546C238.787 44.2202 238.453 45.3394 237.785 46.312C237.117 47.2729 236.174 48.0229 234.955 48.562V48.7026C236.666 49.0425 238.02 49.7456 239.016 50.812C240.023 51.8784 240.527 53.2847 240.527 55.0308ZM231.879 44.2729C231.879 43.8394 231.768 43.4058 231.545 42.9722C231.334 42.5386 230.953 42.2163 230.402 42.0054C229.91 41.8179 229.295 41.7183 228.557 41.7065C227.83 41.6831 226.805 41.6714 225.48 41.6714H224.848V47.2085H225.902C226.969 47.2085 227.877 47.1909 228.627 47.1558C229.377 47.1206 229.969 47.0034 230.402 46.8042C231.012 46.5347 231.41 46.189 231.598 45.7671C231.785 45.3335 231.879 44.8354 231.879 44.2729ZM233.531 54.9253C233.531 54.0933 233.367 53.4546 233.039 53.0093C232.723 52.5522 232.178 52.2124 231.404 51.9897C230.877 51.8374 230.15 51.7554 229.225 51.7437C228.299 51.7319 227.332 51.7261 226.324 51.7261H224.848V58.2476H225.34C227.238 58.2476 228.598 58.2417 229.418 58.23C230.238 58.2183 230.994 58.0659 231.686 57.7729C232.389 57.48 232.869 57.0933 233.127 56.6128C233.396 56.1206 233.531 55.5581 233.531 54.9253ZM257.385 63.5562C255.439 63.5562 253.641 63.269 251.988 62.6948C250.348 62.1206 248.936 61.2651 247.752 60.1284C246.568 58.9917 245.648 57.5737 244.992 55.8745C244.348 54.1753 244.025 52.2124 244.025 49.9858C244.025 47.9116 244.336 46.0308 244.957 44.3433C245.578 42.6558 246.48 41.2085 247.664 40.0015C248.801 38.8413 250.207 37.9448 251.883 37.312C253.57 36.6792 255.41 36.3628 257.402 36.3628C258.504 36.3628 259.494 36.4272 260.373 36.5562C261.264 36.6733 262.084 36.8315 262.834 37.0308C263.619 37.2534 264.328 37.5054 264.961 37.7866C265.605 38.0562 266.168 38.3081 266.648 38.5425V44.8882H265.875C265.547 44.6069 265.131 44.2729 264.627 43.8862C264.135 43.4995 263.572 43.1187 262.939 42.7437C262.295 42.3687 261.598 42.0522 260.848 41.7944C260.098 41.5366 259.295 41.4077 258.439 41.4077C257.49 41.4077 256.588 41.5601 255.732 41.8647C254.877 42.1577 254.086 42.6499 253.359 43.3413C252.668 44.0093 252.105 44.894 251.672 45.9956C251.25 47.0972 251.039 48.4331 251.039 50.0034C251.039 51.644 251.268 53.0151 251.725 54.1167C252.193 55.2183 252.779 56.0854 253.482 56.7183C254.197 57.3628 254.994 57.8257 255.873 58.1069C256.752 58.3765 257.619 58.5112 258.475 58.5112C259.295 58.5112 260.104 58.3882 260.9 58.1421C261.709 57.896 262.453 57.562 263.133 57.1401C263.707 56.8003 264.24 56.437 264.732 56.0503C265.225 55.6636 265.629 55.3296 265.945 55.0483H266.648V61.3062C265.992 61.5991 265.365 61.8745 264.768 62.1323C264.17 62.3901 263.543 62.6128 262.887 62.8003C262.031 63.0464 261.229 63.2339 260.479 63.3628C259.729 63.4917 258.697 63.5562 257.385 63.5562ZM297.059 49.9683C297.059 54.1401 295.863 57.4565 293.473 59.9175C291.082 62.3667 287.777 63.5913 283.559 63.5913C279.352 63.5913 276.053 62.3667 273.662 59.9175C271.271 57.4565 270.076 54.1401 270.076 49.9683C270.076 45.7612 271.271 42.439 273.662 40.0015C276.053 37.5522 279.352 36.3276 283.559 36.3276C287.754 36.3276 291.053 37.5522 293.455 40.0015C295.857 42.439 297.059 45.7612 297.059 49.9683ZM288.111 56.5952C288.768 55.7983 289.254 54.8608 289.57 53.7827C289.887 52.6929 290.045 51.4155 290.045 49.9507C290.045 48.3804 289.863 47.0444 289.5 45.9429C289.137 44.8413 288.662 43.9507 288.076 43.271C287.479 42.5679 286.787 42.0581 286.002 41.7417C285.229 41.4253 284.42 41.2671 283.576 41.2671C282.721 41.2671 281.912 41.4194 281.15 41.7241C280.4 42.0288 279.709 42.5327 279.076 43.2358C278.49 43.8921 278.01 44.8003 277.635 45.9604C277.271 47.1089 277.09 48.4448 277.09 49.9683C277.09 51.5269 277.266 52.8569 277.617 53.9585C277.98 55.0483 278.455 55.939 279.041 56.6304C279.627 57.3218 280.312 57.8315 281.098 58.1597C281.883 58.4878 282.709 58.6519 283.576 58.6519C284.443 58.6519 285.27 58.4878 286.055 58.1597C286.84 57.8198 287.525 57.2983 288.111 56.5952ZM329.666 63.0464H322.951V45.521L318.1 56.894H313.441L308.59 45.521V63.0464H302.227V36.8726H310.066L315.955 50.0034L321.826 36.8726H329.666V63.0464Z" fill="#0D265D"/>
<path d="M146.274 85.7974C146.274 86.4839 146.144 87.09 145.884 87.6157C145.625 88.1414 145.275 88.5744 144.836 88.9146C144.316 89.3228 143.744 89.6134 143.12 89.7866C142.501 89.9598 141.713 90.0464 140.754 90.0464H135.855V76.2324H139.947C140.955 76.2324 141.709 76.2695 142.21 76.3438C142.711 76.418 143.191 76.5726 143.648 76.8076C144.156 77.0736 144.524 77.4168 144.752 77.8374C144.981 78.2518 145.096 78.7497 145.096 79.3311C145.096 79.9867 144.929 80.5464 144.595 81.0103C144.261 81.4679 143.815 81.8359 143.259 82.1143V82.1885C144.193 82.3802 144.929 82.7915 145.467 83.4224C146.005 84.047 146.274 84.8387 146.274 85.7974ZM143.185 79.5723C143.185 79.2383 143.129 78.9569 143.018 78.728C142.906 78.4992 142.727 78.3136 142.479 78.1714C142.189 78.0044 141.836 77.9023 141.422 77.8652C141.007 77.8219 140.494 77.8003 139.882 77.8003H137.692V81.7896H140.067C140.643 81.7896 141.1 81.7617 141.44 81.7061C141.781 81.6442 142.096 81.5205 142.387 81.335C142.677 81.1494 142.882 80.9113 142.999 80.6206C143.123 80.3237 143.185 79.9743 143.185 79.5723ZM144.363 85.8716C144.363 85.3149 144.279 84.8727 144.112 84.5449C143.945 84.2171 143.642 83.9388 143.203 83.71C142.906 83.5553 142.544 83.4564 142.118 83.4131C141.697 83.3636 141.184 83.3389 140.578 83.3389H137.692V88.4785H140.123C140.927 88.4785 141.586 88.4383 142.099 88.3579C142.612 88.2713 143.033 88.1167 143.361 87.894C143.707 87.6528 143.961 87.3776 144.122 87.0684C144.282 86.7591 144.363 86.3602 144.363 85.8716ZM155.208 81.5854H155.115C154.855 81.5236 154.602 81.4803 154.354 81.4556C154.113 81.4246 153.826 81.4092 153.492 81.4092C152.954 81.4092 152.434 81.5298 151.933 81.771C151.432 82.006 150.95 82.3122 150.486 82.6895V90.0464H148.742V79.6836H150.486V81.2144C151.179 80.6577 151.788 80.265 152.313 80.0361C152.845 79.8011 153.387 79.6836 153.937 79.6836C154.24 79.6836 154.46 79.6929 154.596 79.7114C154.732 79.7238 154.936 79.7516 155.208 79.7949V81.5854ZM158.724 77.9487H156.757V76.1396H158.724V77.9487ZM158.613 90.0464H156.869V79.6836H158.613V90.0464ZM170.729 90.0464H168.985V84.146C168.985 83.6698 168.957 83.2244 168.901 82.8101C168.846 82.3895 168.744 82.0617 168.595 81.8267C168.441 81.5669 168.218 81.3752 167.927 81.2515C167.637 81.1216 167.259 81.0566 166.795 81.0566C166.319 81.0566 165.821 81.1742 165.302 81.4092C164.782 81.6442 164.284 81.9442 163.808 82.3091V90.0464H162.064V79.6836H163.808V80.834C164.352 80.3825 164.915 80.0299 165.497 79.7764C166.078 79.5228 166.675 79.396 167.287 79.396C168.407 79.396 169.26 79.7331 169.848 80.4072C170.435 81.0814 170.729 82.0524 170.729 83.3203V90.0464ZM182.493 88.8682C182.493 90.6247 182.094 91.9142 181.296 92.7368C180.498 93.5594 179.27 93.9707 177.613 93.9707C177.062 93.9707 176.524 93.9305 175.999 93.8501C175.479 93.7759 174.966 93.6676 174.458 93.5254V91.7441H174.551C174.836 91.8555 175.287 91.9915 175.906 92.1523C176.524 92.3193 177.143 92.4028 177.761 92.4028C178.355 92.4028 178.847 92.3317 179.236 92.1895C179.626 92.0472 179.929 91.8493 180.146 91.5957C180.362 91.3545 180.517 91.0638 180.609 90.7236C180.702 90.3835 180.749 90.0031 180.749 89.5825V88.6362C180.223 89.0568 179.719 89.3722 179.236 89.5825C178.76 89.7866 178.151 89.8887 177.409 89.8887C176.172 89.8887 175.188 89.4434 174.458 88.5527C173.735 87.6559 173.373 86.3942 173.373 84.7676C173.373 83.877 173.497 83.11 173.744 82.4668C173.998 81.8174 174.341 81.2576 174.774 80.7876C175.176 80.3485 175.665 80.0083 176.24 79.7671C176.815 79.5197 177.387 79.396 177.956 79.396C178.556 79.396 179.057 79.4578 179.459 79.5815C179.867 79.6991 180.297 79.8815 180.749 80.1289L180.86 79.6836H182.493V88.8682ZM180.749 87.1982V81.5483C180.285 81.3381 179.852 81.1896 179.45 81.103C179.054 81.0103 178.658 80.9639 178.262 80.9639C177.304 80.9639 176.549 81.2855 175.999 81.9287C175.448 82.5719 175.173 83.5059 175.173 84.7305C175.173 85.8932 175.377 86.7746 175.785 87.3745C176.193 87.9744 176.871 88.2744 177.817 88.2744C178.324 88.2744 178.831 88.1785 179.338 87.9868C179.852 87.7889 180.322 87.526 180.749 87.1982ZM187.799 77.9487H185.833V76.1396H187.799V77.9487ZM187.688 90.0464H185.944V79.6836H187.688V90.0464ZM199.804 90.0464H198.06V84.146C198.06 83.6698 198.032 83.2244 197.977 82.8101C197.921 82.3895 197.819 82.0617 197.67 81.8267C197.516 81.5669 197.293 81.3752 197.002 81.2515C196.712 81.1216 196.334 81.0566 195.871 81.0566C195.394 81.0566 194.896 81.1742 194.377 81.4092C193.857 81.6442 193.36 81.9442 192.883 82.3091V90.0464H191.139V79.6836H192.883V80.834C193.428 80.3825 193.99 80.0299 194.572 79.7764C195.153 79.5228 195.75 79.396 196.362 79.396C197.482 79.396 198.335 79.7331 198.923 80.4072C199.51 81.0814 199.804 82.0524 199.804 83.3203V90.0464ZM211.568 88.8682C211.568 90.6247 211.169 91.9142 210.371 92.7368C209.573 93.5594 208.346 93.9707 206.688 93.9707C206.138 93.9707 205.599 93.9305 205.074 93.8501C204.554 93.7759 204.041 93.6676 203.534 93.5254V91.7441H203.626C203.911 91.8555 204.362 91.9915 204.981 92.1523C205.599 92.3193 206.218 92.4028 206.836 92.4028C207.43 92.4028 207.922 92.3317 208.312 92.1895C208.701 92.0472 209.004 91.8493 209.221 91.5957C209.437 91.3545 209.592 91.0638 209.685 90.7236C209.777 90.3835 209.824 90.0031 209.824 89.5825V88.6362C209.298 89.0568 208.794 89.3722 208.312 89.5825C207.835 89.7866 207.226 89.8887 206.484 89.8887C205.247 89.8887 204.264 89.4434 203.534 88.5527C202.81 87.6559 202.448 86.3942 202.448 84.7676C202.448 83.877 202.572 83.11 202.819 82.4668C203.073 81.8174 203.416 81.2576 203.849 80.7876C204.251 80.3485 204.74 80.0083 205.315 79.7671C205.89 79.5197 206.462 79.396 207.031 79.396C207.631 79.396 208.132 79.4578 208.534 79.5815C208.942 79.6991 209.372 79.8815 209.824 80.1289L209.935 79.6836H211.568V88.8682ZM209.824 87.1982V81.5483C209.36 81.3381 208.927 81.1896 208.525 81.103C208.129 81.0103 207.733 80.9639 207.337 80.9639C206.379 80.9639 205.624 81.2855 205.074 81.9287C204.523 82.5719 204.248 83.5059 204.248 84.7305C204.248 85.8932 204.452 86.7746 204.86 87.3745C205.269 87.9744 205.946 88.2744 206.892 88.2744C207.399 88.2744 207.906 88.1785 208.414 87.9868C208.927 87.7889 209.397 87.526 209.824 87.1982ZM258.057 77.8652H253.121V90.0464H251.284V77.8652H246.349V76.2324H258.057V77.8652ZM268.605 84.8696C268.605 86.5581 268.172 87.891 267.306 88.8682C266.44 89.8454 265.281 90.334 263.827 90.334C262.361 90.334 261.195 89.8454 260.33 88.8682C259.47 87.891 259.04 86.5581 259.04 84.8696C259.04 83.1812 259.47 81.8483 260.33 80.8711C261.195 79.8877 262.361 79.396 263.827 79.396C265.281 79.396 266.44 79.8877 267.306 80.8711C268.172 81.8483 268.605 83.1812 268.605 84.8696ZM266.805 84.8696C266.805 83.5275 266.542 82.5317 266.017 81.8823C265.491 81.2267 264.761 80.8989 263.827 80.8989C262.881 80.8989 262.145 81.2267 261.619 81.8823C261.1 82.5317 260.84 83.5275 260.84 84.8696C260.84 86.1685 261.103 87.1549 261.628 87.8291C262.154 88.4971 262.887 88.8311 263.827 88.8311C264.755 88.8311 265.482 88.5002 266.007 87.8384C266.539 87.1704 266.805 86.1808 266.805 84.8696ZM279.719 88.8682C279.719 90.6247 279.32 91.9142 278.522 92.7368C277.725 93.5594 276.497 93.9707 274.839 93.9707C274.289 93.9707 273.751 93.9305 273.225 93.8501C272.706 93.7759 272.192 93.6676 271.685 93.5254V91.7441H271.778C272.062 91.8555 272.514 91.9915 273.132 92.1523C273.751 92.3193 274.369 92.4028 274.988 92.4028C275.582 92.4028 276.073 92.3317 276.463 92.1895C276.853 92.0472 277.156 91.8493 277.372 91.5957C277.589 91.3545 277.743 91.0638 277.836 90.7236C277.929 90.3835 277.975 90.0031 277.975 89.5825V88.6362C277.449 89.0568 276.945 89.3722 276.463 89.5825C275.987 89.7866 275.377 89.8887 274.635 89.8887C273.398 89.8887 272.415 89.4434 271.685 88.5527C270.961 87.6559 270.6 86.3942 270.6 84.7676C270.6 83.877 270.723 83.11 270.971 82.4668C271.224 81.8174 271.568 81.2576 272 80.7876C272.403 80.3485 272.891 80.0083 273.466 79.7671C274.042 79.5197 274.614 79.396 275.183 79.396C275.783 79.396 276.284 79.4578 276.686 79.5815C277.094 79.6991 277.524 79.8815 277.975 80.1289L278.086 79.6836H279.719V88.8682ZM277.975 87.1982V81.5483C277.511 81.3381 277.078 81.1896 276.676 81.103C276.28 81.0103 275.885 80.9639 275.489 80.9639C274.53 80.9639 273.776 81.2855 273.225 81.9287C272.675 82.5719 272.399 83.5059 272.399 84.7305C272.399 85.8932 272.604 86.7746 273.012 87.3745C273.42 87.9744 274.097 88.2744 275.043 88.2744C275.551 88.2744 276.058 88.1785 276.565 87.9868C277.078 87.7889 277.548 87.526 277.975 87.1982ZM291.826 85.0459H284.191C284.191 85.6829 284.287 86.2396 284.479 86.7158C284.67 87.1859 284.933 87.5724 285.267 87.8755C285.589 88.1724 285.969 88.395 286.408 88.5435C286.854 88.6919 287.342 88.7661 287.874 88.7661C288.579 88.7661 289.287 88.627 289.999 88.3486C290.716 88.0641 291.226 87.7858 291.529 87.5137H291.622V89.4155C291.035 89.6629 290.435 89.8701 289.822 90.0371C289.21 90.2041 288.567 90.2876 287.893 90.2876C286.173 90.2876 284.831 89.8237 283.866 88.896C282.901 87.9621 282.419 86.6385 282.419 84.9253C282.419 83.2306 282.88 81.8854 283.801 80.8896C284.729 79.8939 285.947 79.396 287.457 79.396C288.854 79.396 289.931 79.8042 290.685 80.6206C291.446 81.437 291.826 82.5967 291.826 84.0996V85.0459ZM290.128 83.71C290.122 82.7946 289.89 82.0864 289.433 81.5854C288.981 81.0845 288.292 80.834 287.364 80.834C286.43 80.834 285.685 81.1092 285.128 81.6597C284.577 82.2101 284.265 82.8936 284.191 83.71H290.128ZM299.851 89.9536C299.523 90.0402 299.165 90.1113 298.775 90.167C298.391 90.2227 298.048 90.2505 297.745 90.2505C296.688 90.2505 295.883 89.966 295.333 89.397C294.783 88.828 294.507 87.9157 294.507 86.6602V81.1494H293.329V79.6836H294.507V76.7056H296.251V79.6836H299.851V81.1494H296.251V85.8716C296.251 86.4159 296.264 86.8426 296.289 87.1519C296.313 87.4549 296.4 87.7394 296.548 88.0054C296.684 88.2528 296.87 88.4352 297.105 88.5527C297.346 88.6641 297.711 88.7197 298.2 88.7197C298.484 88.7197 298.781 88.6795 299.09 88.5991C299.4 88.5125 299.622 88.4414 299.758 88.3857H299.851V89.9536ZM310.631 90.0464H308.887V84.146C308.887 83.6698 308.859 83.2244 308.804 82.8101C308.748 82.3895 308.646 82.0617 308.498 81.8267C308.343 81.5669 308.12 81.3752 307.83 81.2515C307.539 81.1216 307.162 81.0566 306.698 81.0566C306.222 81.0566 305.724 81.1742 305.204 81.4092C304.685 81.6442 304.187 81.9442 303.71 82.3091V90.0464H301.966V75.6108H303.71V80.834C304.255 80.3825 304.818 80.0299 305.399 79.7764C305.98 79.5228 306.577 79.396 307.189 79.396C308.309 79.396 309.162 79.7331 309.75 80.4072C310.338 81.0814 310.631 82.0524 310.631 83.3203V90.0464ZM322.664 85.0459H315.029C315.029 85.6829 315.125 86.2396 315.316 86.7158C315.508 87.1859 315.771 87.5724 316.105 87.8755C316.427 88.1724 316.807 88.395 317.246 88.5435C317.691 88.6919 318.18 88.7661 318.712 88.7661C319.417 88.7661 320.125 88.627 320.836 88.3486C321.554 88.0641 322.064 87.7858 322.367 87.5137H322.46V89.4155C321.872 89.6629 321.272 89.8701 320.66 90.0371C320.048 90.2041 319.405 90.2876 318.73 90.2876C317.011 90.2876 315.669 89.8237 314.704 88.896C313.739 87.9621 313.257 86.6385 313.257 84.9253C313.257 83.2306 313.718 81.8854 314.639 80.8896C315.567 79.8939 316.785 79.396 318.294 79.396C319.692 79.396 320.768 79.8042 321.523 80.6206C322.284 81.437 322.664 82.5967 322.664 84.0996V85.0459ZM320.966 83.71C320.96 82.7946 320.728 82.0864 320.271 81.5854C319.819 81.0845 319.129 80.834 318.202 80.834C317.268 80.834 316.522 81.1092 315.966 81.6597C315.415 82.2101 315.103 82.8936 315.029 83.71H320.966ZM331.774 81.5854H331.682C331.422 81.5236 331.168 81.4803 330.921 81.4556C330.68 81.4246 330.392 81.4092 330.058 81.4092C329.52 81.4092 329 81.5298 328.5 81.771C327.999 82.006 327.516 82.3122 327.052 82.6895V90.0464H325.308V79.6836H327.052V81.2144C327.745 80.6577 328.354 80.265 328.88 80.0361C329.412 79.8011 329.953 79.6836 330.503 79.6836C330.806 79.6836 331.026 79.6929 331.162 79.7114C331.298 79.7238 331.502 79.7516 331.774 79.7949V81.5854Z" fill="#0D265D"/>
<path d="M226.69 90.0464H221.235V88.6362H223.044V77.6426H221.235V76.2324H226.69V77.6426H224.881V88.6362H226.69V90.0464ZM239.669 77.8652H234.733V90.0464H232.896V77.8652H227.961V76.2324H239.669V77.8652Z" fill="#FF0000"/>
</svg>